<svg width="175" height="42" viewBox="0 0 175 42" fill="none" xmlns="http://www.w3.org/2000/svg">
<g id="adobe-44195 1" clip-path="url(#clip0_194_1789)">
<path id="Vector" fill-rule="evenodd" clip-rule="evenodd" d="M68.5098 30.2592L66.1356 41.2974H60.6748L69.6969 1.29338H76.1658L84.6537 41.2974H79.1336L76.8187 30.2592H68.5098ZM76.1658 25.8075L74.3257 16.2501C73.7915 13.5198 73.2573 9.96036 72.8428 7.11028H72.6044C72.1899 10.0187 71.5944 13.6978 71.0621 16.2501L69.1627 25.8075H76.1658ZM105.498 0.225952V33.8789C105.498 36.0761 105.616 39.2813 105.734 41.2984H100.927L100.571 37.7974H100.393C99.4433 39.8145 97.2471 41.7743 94.3396 41.7743C88.9976 41.7743 85.733 35.9564 85.733 26.9956C85.733 16.7863 90.065 11.9785 94.6364 11.9785C96.9503 11.9785 98.7903 13.0479 99.7994 15.2431H99.9181V0.225952H105.498ZM99.9171 23.4332C99.9171 22.9 99.9171 22.2471 99.8578 21.6515C99.561 19.0409 98.0771 16.7853 96.06 16.7853C92.557 16.7853 91.3708 21.6515 91.3708 26.9946C91.3708 32.9302 92.9141 37.0841 95.8819 37.0841C97.1284 37.0841 98.7894 36.4312 99.7391 32.9896C99.8578 32.5147 99.9171 31.8014 99.9171 31.1505V23.4332ZM118.787 41.7733C113.031 41.7733 108.875 36.8467 108.875 26.9362C108.875 16.4292 113.801 11.9775 119.083 11.9775C124.781 11.9775 128.876 17.0821 128.876 26.8165C128.876 38.2723 123.237 41.7733 118.846 41.7733H118.787ZM118.965 37.3819C122.406 37.3819 123.179 31.2682 123.179 26.8769C123.179 22.5429 122.407 16.3708 118.847 16.3708C115.166 16.3708 114.454 22.5429 114.454 26.8769C114.454 31.6837 115.285 37.3819 118.906 37.3819H118.965ZM132.24 0.225952H137.818V15.7169H137.937C139.421 13.1062 141.439 11.9775 143.991 11.9775C148.917 11.9775 152.004 17.557 152.004 26.401C152.004 36.728 147.79 41.7733 143.041 41.7733C140.192 41.7733 138.59 40.229 137.342 37.6767H137.107L136.809 41.2974H132.002C132.121 39.3397 132.24 36.0751 132.24 33.8779V0.225952ZM137.818 31.0882C137.818 31.7431 137.877 32.396 138.055 32.8699C138.945 36.3729 140.667 37.0841 141.794 37.0841C145.118 37.0841 146.364 32.6928 146.364 26.7572C146.364 21.237 145.059 16.7853 141.735 16.7853C139.894 16.7853 138.411 18.9815 137.995 21.059C137.876 21.6525 137.817 22.4252 137.817 23.0177V31.0882H137.818ZM160.237 28.0027C160.296 35.4222 163.5 37.2612 166.884 37.2612C168.902 37.2612 170.623 36.7874 171.87 36.1928L172.701 40.229C170.979 41.1194 168.368 41.5952 165.815 41.5952C158.575 41.5952 154.776 36.1344 154.776 27.231C154.776 17.7934 159.108 11.9765 165.103 11.9765C171.098 11.9765 173.888 17.734 173.888 24.9765C173.888 26.4 173.827 27.2914 173.769 28.062L160.237 28.0027ZM168.605 24.0268C168.664 18.9222 166.884 16.1928 164.689 16.1928C161.779 16.1928 160.473 20.407 160.296 24.0268H168.605Z" fill="white" fill-opacity="0.3"/>
<path id="Vector_2" fill-rule="evenodd" clip-rule="evenodd" d="M29.2322 1.40015H45.8984V41.2974L29.2322 1.40015ZM17.4916 1.40015H0.813477V41.2974L17.4916 1.40015ZM23.3629 16.1036L33.9817 41.2974H27.0232L23.8476 33.2734H16.0749L23.3629 16.1036Z" fill="white" fill-opacity="0.3"/>
<path id="Vector_3" fill-rule="evenodd" clip-rule="evenodd" d="M173.414 11.9032C173.581 11.904 173.747 11.9379 173.901 12.0029C174.055 12.0679 174.195 12.1628 174.312 12.2821C174.429 12.4014 174.521 12.5427 174.584 12.6979C174.646 12.8531 174.677 13.0191 174.674 13.1863C174.674 13.9104 174.116 14.4753 173.408 14.4753C172.707 14.4753 172.136 13.9114 172.136 13.1863C172.135 13.0185 172.167 12.8521 172.231 12.6967C172.294 12.5413 172.388 12.4 172.506 12.2808C172.624 12.1617 172.765 12.067 172.919 12.0022C173.074 11.9374 173.24 11.9037 173.408 11.9032H173.414ZM173.408 12.1021C172.844 12.1021 172.381 12.5878 172.381 13.1863C172.381 13.7967 172.844 14.2755 173.414 14.2755C173.984 14.2814 174.44 13.7967 174.44 13.1922C174.44 12.5878 173.984 12.1021 173.414 12.1021H173.408ZM173.169 13.9342H172.941V12.5017C173.061 12.4849 173.176 12.4671 173.347 12.4671C173.564 12.4671 173.705 12.5136 173.791 12.5759C173.877 12.6382 173.923 12.7352 173.923 12.8727C173.923 13.0607 173.797 13.1754 173.643 13.2209V13.2318C173.768 13.2546 173.854 13.3693 173.882 13.58C173.917 13.8026 173.95 13.8877 173.974 13.9342H173.735C173.7 13.8877 173.666 13.7571 173.638 13.5691C173.603 13.3861 173.512 13.3179 173.329 13.3179H173.17V13.9342H173.169ZM173.169 13.1408H173.334C173.522 13.1408 173.683 13.0725 173.683 12.8954C173.683 12.7698 173.591 12.6442 173.334 12.6442C173.261 12.6442 173.208 12.6501 173.169 12.656V13.1408ZM48.0955 1.40015C48.2627 1.40092 48.4282 1.43479 48.5822 1.49983C48.7363 1.56486 48.8759 1.65976 48.9931 1.77905C49.1102 1.89835 49.2026 2.03967 49.2649 2.19486C49.3272 2.35004 49.3581 2.51603 49.3559 2.68323C49.3559 3.40737 48.7969 3.97224 48.0896 3.97224C47.3882 3.97224 46.8174 3.40836 46.8174 2.68323C46.8165 2.51539 46.8487 2.34902 46.9122 2.19365C46.9756 2.03828 47.0692 1.89695 47.1873 1.77776C47.3055 1.65858 47.446 1.56388 47.6008 1.49908C47.7557 1.43428 47.9218 1.40066 48.0896 1.40015H48.0955ZM48.0896 1.59899C47.5247 1.59899 47.0627 2.08472 47.0627 2.68323C47.0627 3.2936 47.5247 3.77241 48.0955 3.77241C48.6654 3.77834 49.1224 3.29361 49.1224 2.68917C49.1224 2.08472 48.6654 1.59899 48.0955 1.59899H48.0896ZM47.8502 3.43112H47.6217V1.99865C47.7557 1.9764 47.8914 1.96516 48.0273 1.96502C48.2439 1.96502 48.3864 2.00954 48.4715 2.07285C48.5575 2.13517 48.603 2.23311 48.603 2.36963C48.603 2.55759 48.4774 2.67235 48.3231 2.71785V2.72873C48.4487 2.75148 48.5348 2.86624 48.5635 3.07795C48.5971 3.30053 48.6317 3.38561 48.6545 3.43211H48.4151C48.3804 3.38561 48.3458 3.25502 48.3181 3.06706C48.2835 2.88405 48.1925 2.81579 48.0095 2.81579H47.8502V3.43112ZM47.8502 2.63772H48.0154C48.2034 2.63772 48.3636 2.56946 48.3636 2.39238C48.3636 2.26674 48.2726 2.14111 48.0154 2.14111C47.9412 2.14111 47.8898 2.14705 47.8502 2.15298V2.63772Z" fill="white" fill-opacity="0.3"/>
</g>
<defs>
<clipPath id="clip0_194_1789">
<rect width="173.861" height="41.5483" fill="white" transform="translate(0.813477 0.225952)"/>
</clipPath>
</defs>
</svg>
