<svg width="162" height="50" viewBox="0 0 162 50" fill="none" xmlns="http://www.w3.org/2000/svg">
<g id="Frame" clip-path="url(#clip0_194_1784)">
<path id="Vector" fill-rule="evenodd" clip-rule="evenodd" d="M99.9871 38.672C90.6654 45.5644 77.1065 49.2366 65.4119 49.2366C49.0283 49.2366 34.3395 43.1916 23.1534 33.1354C22.306 32.3445 23.0404 31.2711 24.1138 31.8925C36.1473 38.8979 51.0056 43.0786 66.3723 43.0786C76.711 43.0786 88.1231 40.9318 98.6312 36.4686C100.213 35.8472 101.512 37.542 99.9871 38.672Z" fill="white" fill-opacity="0.3"/>
<path id="Vector_2" fill-rule="evenodd" clip-rule="evenodd" d="M103.885 34.2087C102.698 32.6833 95.9754 33.4742 92.9812 33.8697C92.0773 33.9827 91.9078 33.1917 92.7552 32.6268C98.1223 28.8416 106.879 29.9715 107.896 31.2144C108.913 32.4573 107.613 41.2706 102.585 45.4513C101.794 46.0727 101.06 45.7337 101.399 44.8863C102.529 42.0615 105.071 35.7905 103.885 34.2087Z" fill="white" fill-opacity="0.3"/>
<path id="Vector_3" fill-rule="evenodd" clip-rule="evenodd" d="M93.1504 6.07399V2.40179C93.1504 1.83684 93.5459 1.49786 94.0543 1.49786H110.438C110.946 1.49786 111.398 1.89333 111.398 2.40179V5.50904C111.398 6.01749 110.946 6.69544 110.156 7.82535L101.681 19.9154C104.845 19.8589 108.178 20.3108 111.003 21.8927C111.624 22.2317 111.794 22.7966 111.85 23.3051V27.2033C111.85 27.7682 111.285 28.3897 110.664 28.0507C105.636 25.3954 98.913 25.1129 93.3764 28.1072C92.8115 28.3897 92.19 27.8247 92.19 27.2598V23.5311C92.19 22.9661 92.19 21.9492 92.8115 21.0453L102.642 6.97792H94.1108C93.6024 6.97792 93.1504 6.58245 93.1504 6.07399ZM33.4348 28.8416H28.4632C28.0113 28.7851 27.6158 28.4461 27.5593 27.9942V2.45829C27.5593 1.94983 28.0113 1.55436 28.5197 1.55436H33.1523C33.6608 1.55436 33.9998 1.94983 34.0563 2.40179V5.73501H34.1693C35.3557 2.51478 37.672 0.989406 40.7227 0.989406C43.83 0.989406 45.8073 2.51478 47.1632 5.73501C48.3496 2.51478 51.1179 0.989406 54.0556 0.989406C56.146 0.989406 58.4058 1.83684 59.8182 3.81417C61.4 5.961 61.061 9.06825 61.061 11.8365V27.9942C61.061 28.5026 60.6091 28.8981 60.1006 28.8981H55.1855C54.6771 28.8416 54.2816 28.4461 54.2816 27.9942V14.4353C54.2816 13.3619 54.3946 10.6501 54.1686 9.63319C53.7732 7.93833 52.6997 7.42987 51.2309 7.42987C50.0444 7.42987 48.7451 8.22082 48.2366 9.52021C47.7281 10.8196 47.7846 12.9664 47.7846 14.4353V27.9942C47.7846 28.5026 47.3327 28.8981 46.8242 28.8981H41.8526C41.3442 28.8416 40.9487 28.4461 40.9487 27.9942V14.4353C40.9487 11.6105 41.4007 7.37338 37.8979 7.37338C34.3387 7.37338 34.4517 11.441 34.4517 14.4353V27.9942C34.3952 28.4461 33.9998 28.8416 33.4348 28.8416ZM125.522 0.989406C132.923 0.989406 136.934 7.31689 136.934 15.3957C136.934 23.1921 132.528 29.4066 125.522 29.4066C118.291 29.4066 114.336 23.0791 114.336 15.1697C114.28 7.2039 118.291 0.989406 125.522 0.989406ZM125.522 6.24347C121.85 6.24347 121.624 11.2716 121.624 14.3788C121.624 17.4861 121.568 24.1525 125.466 24.1525C129.307 24.1525 129.533 18.7855 129.533 15.5087C129.533 13.3619 129.42 10.7631 128.799 8.72928C128.234 6.92143 127.104 6.24347 125.522 6.24347ZM146.482 28.8416H141.51C141.002 28.7851 140.607 28.3897 140.607 27.9377V2.34529C140.663 1.89333 141.059 1.49786 141.567 1.49786H146.2C146.652 1.49786 146.991 1.83684 147.104 2.23231V6.13049H147.216C148.629 2.62777 150.55 0.989406 153.996 0.989406C156.199 0.989406 158.403 1.78033 159.815 3.98365C161.114 6.01749 161.114 9.46371 161.114 11.9495V28.0507C161.058 28.5026 160.662 28.8416 160.154 28.8416H155.182C154.73 28.7851 154.335 28.4462 154.278 28.0507V14.1528C154.278 11.3281 154.617 7.2604 151.171 7.2604C149.985 7.2604 148.855 8.05133 148.29 9.29423C147.612 10.8761 147.499 12.4015 147.499 14.1528V27.9377C147.442 28.4462 146.991 28.8416 146.482 28.8416ZM80.1 16.6386C80.1 18.5595 80.1565 20.1978 79.1961 21.9492C78.4051 23.3616 77.1622 24.209 75.7498 24.209C73.829 24.209 72.6991 22.7401 72.6991 20.5933C72.6991 16.3562 76.4843 15.5652 80.1 15.5652V16.6386ZM85.1281 28.7851C84.7891 29.0676 84.3371 29.1241 83.9417 28.8981C82.3033 27.5422 81.9643 26.8643 81.0604 25.5649C78.3486 28.3332 76.3713 29.1806 72.8686 29.1806C68.6879 29.1806 65.4112 26.5818 65.4112 21.4407C65.4112 17.3731 67.6145 14.6613 70.7218 13.3054C73.4335 12.119 77.2187 11.893 80.1 11.554V10.9326C80.1 9.74619 80.213 8.33381 79.4785 7.31689C78.8571 6.41297 77.7272 6.01749 76.7103 6.01749C74.7894 6.01749 73.0946 6.97792 72.6991 9.01175C72.5861 9.46372 72.3036 9.91567 71.8517 9.91567L67.0496 9.40721C66.6541 9.29422 66.2021 9.01175 66.3151 8.3903C67.445 2.51478 72.6991 0.763428 77.4447 0.763428C79.874 0.763428 83.0378 1.38487 84.9586 3.24922C87.3879 5.50904 87.1619 8.55979 87.1619 11.8365V19.5764C87.1619 21.8927 88.1223 22.9096 89.0263 24.209C89.3652 24.661 89.4217 25.2259 89.0263 25.5084C87.9528 26.3558 86.145 27.9377 85.1281 28.7851ZM14.8478 16.6386C14.8478 18.5595 14.9043 20.1978 13.9439 21.9492C13.153 23.3616 11.9101 24.209 10.4977 24.209C8.57684 24.209 7.44694 22.7401 7.44694 20.5933C7.44694 16.3562 11.2321 15.5652 14.8478 15.5652V16.6386ZM19.8194 28.7851C19.4804 29.0676 19.0285 29.1241 18.633 28.8981C16.9947 27.5422 16.6557 26.8643 15.7518 25.5649C13.04 28.3332 11.0626 29.1806 7.55993 29.1806C3.37927 29.1806 0.102539 26.5818 0.102539 21.4407C0.102539 17.3731 2.30586 14.6613 5.4131 13.3054C8.12488 12.119 11.9101 11.893 14.7913 11.554V10.9326C14.7913 9.74619 14.9043 8.33381 14.1699 7.31689C13.5484 6.41297 12.4185 6.01749 11.4016 6.01749C9.48077 6.01749 7.78591 6.97792 7.39044 9.01175C7.27745 9.46372 6.99497 9.91567 6.54301 9.91567L1.7409 9.40721C1.34543 9.29422 0.893478 9.01175 1.00647 8.3903C2.13638 2.51478 7.39044 0.763428 12.1361 0.763428C14.5654 0.763428 17.7291 1.38487 19.6499 3.24922C22.0792 5.50904 21.8533 8.55979 21.8533 11.8365V19.5764C21.8533 21.8927 22.8137 22.9096 23.7176 24.209C24.0566 24.661 24.1131 25.2259 23.7176 25.5084C22.6442 26.3558 20.8363 27.9377 19.8194 28.7851Z" fill="white" fill-opacity="0.3"/>
</g>
<defs>
<clipPath id="clip0_194_1784">
<rect width="161.012" height="48.473" fill="white" transform="translate(0.102539 0.763428)"/>
</clipPath>
</defs>
</svg>
