<?xml version="1.0" encoding="UTF-8"?>
<!DOCTYPE svg PUBLIC "-//W3C//DTD SVG 1.1//EN" "http://www.w3.org/Graphics/SVG/1.1/DTD/svg11.dtd">
<svg xmlns="http://www.w3.org/2000/svg" version="1.1" width="5760px" height="844px" style="shape-rendering:geometricPrecision; text-rendering:geometricPrecision; image-rendering:optimizeQuality; fill-rule:evenodd; clip-rule:evenodd" xmlns:xlink="http://www.w3.org/1999/xlink">
<g><path style="opacity:0.998" fill="#f3771f" d="M 563.5,-0.5 C 564.833,-0.5 566.167,-0.5 567.5,-0.5C 659.165,52.9698 750.998,106.303 843,159.5C 843.667,266.833 843.667,374.167 843,481.5C 750.651,534.84 658.317,588.174 566,641.5C 473.418,588.582 381.085,535.249 289,481.5C 288.333,374.167 288.333,266.833 289,159.5C 380.645,106.266 472.145,52.9329 563.5,-0.5 Z"/></g>
<g><path style="opacity:0.998" fill="#f3771f" d="M 1141.5,-0.5 C 1142.83,-0.5 1144.17,-0.5 1145.5,-0.5C 1237.16,52.9698 1329,106.303 1421,159.5C 1421.67,266.833 1421.67,374.167 1421,481.5C 1328.65,534.84 1236.32,588.174 1144,641.5C 1051.42,588.582 959.085,535.249 867,481.5C 866.333,374.167 866.333,266.833 867,159.5C 958.645,106.266 1050.14,52.9329 1141.5,-0.5 Z"/></g>
<g><path style="opacity:0.998" fill="#f27720" d="M 5351.5,-0.5 C 5374.5,-0.5 5397.5,-0.5 5420.5,-0.5C 5474.02,2.04019 5525.35,14.2069 5574.5,36C 5627.02,62.1798 5669.19,100.013 5701,149.5C 5727.68,195.877 5743.85,244.71 5749.5,296C 5750.88,302.896 5752.21,309.563 5753.5,316C 5753.17,316.333 5752.83,316.667 5752.5,317C 5753.8,326.388 5755.14,336.055 5756.5,346C 5756.17,346.333 5755.83,346.667 5755.5,347C 5756.17,351.333 5756.83,355.667 5757.5,360C 5757.45,391.135 5757.45,422.635 5757.5,454.5C 5677.83,454.5 5598.17,454.5 5518.5,454.5C 5518.67,424.831 5518.5,395.165 5518,365.5C 5517.31,336.351 5510.64,308.684 5498,282.5C 5478.81,251.799 5450.98,234.632 5414.5,231C 5325.26,222.922 5276.76,263.422 5269,352.5C 5262.3,413.625 5272.63,471.625 5300,526.5C 5324.99,570.501 5354.99,610.834 5390,647.5C 5437.07,695.068 5485.57,740.902 5535.5,785C 5555.07,804.064 5574.07,823.564 5592.5,843.5C 5469.17,843.5 5345.83,843.5 5222.5,843.5C 5181.47,802.652 5143.97,758.985 5110,712.5C 5077.85,665.189 5052.85,614.189 5035,559.5C 5016.63,491.246 5010.47,421.913 5016.5,351.5C 5019.13,279.003 5038.3,211.003 5074,147.5C 5125.12,68.979 5197.28,22.1457 5290.5,7C 5310.88,3.64477 5331.21,1.14477 5351.5,-0.5 Z"/></g>
<g><path style="opacity:0.996" fill="#f3781f" d="M 2363.5,843.5 C 2279.17,843.5 2194.83,843.5 2110.5,843.5C 2110.5,568.167 2110.5,292.833 2110.5,17.5C 2194.83,17.5 2279.17,17.5 2363.5,17.5C 2363.5,292.833 2363.5,568.167 2363.5,843.5 Z"/></g>
<g><path style="opacity:0.997" fill="#f3781f" d="M 2862.5,843.5 C 2782.83,843.5 2703.17,843.5 2623.5,843.5C 2623.5,568.167 2623.5,292.833 2623.5,17.5C 2703.17,17.5 2782.83,17.5 2862.5,17.5C 2862.5,292.833 2862.5,568.167 2862.5,843.5 Z"/></g>
<g><path style="opacity:0.997" fill="#f27720" d="M 3501.5,843.5 C 3431.83,843.5 3362.17,843.5 3292.5,843.5C 3258.58,718.228 3224.74,592.895 3191,467.5C 3190.5,592.833 3190.33,718.166 3190.5,843.5C 3114.5,843.5 3038.5,843.5 2962.5,843.5C 2962.5,568.167 2962.5,292.833 2962.5,17.5C 3068.4,17.1679 3174.24,17.5013 3280,18.5C 3353.94,293.489 3427.78,568.489 3501.5,843.5 Z"/></g>
<g><path style="opacity:0.996" fill="#f2781f" d="M 4121.5,843.5 C 4037.17,843.5 3952.83,843.5 3868.5,843.5C 3868.5,568.167 3868.5,292.833 3868.5,17.5C 3952.83,17.5 4037.17,17.5 4121.5,17.5C 4121.5,292.833 4121.5,568.167 4121.5,843.5 Z"/></g>
<g><path style="opacity:0.998" fill="#f37820" d="M 4704.5,843.5 C 4620.17,843.5 4535.83,843.5 4451.5,843.5C 4451.5,645.167 4451.5,446.833 4451.5,248.5C 4363.83,248.5 4276.17,248.5 4188.5,248.5C 4188.5,171.5 4188.5,94.5 4188.5,17.5C 4448.17,17.5 4707.83,17.5 4967.5,17.5C 4967.5,94.5 4967.5,171.5 4967.5,248.5C 4879.83,248.5 4792.17,248.5 4704.5,248.5C 4704.5,446.833 4704.5,645.167 4704.5,843.5 Z"/></g>
<g><path style="opacity:0.998" fill="#f3781f" d="M 3762.5,843.5 C 3687.5,843.5 3612.5,843.5 3537.5,843.5C 3537.5,568.167 3537.5,292.833 3537.5,17.5C 3612.5,17.5 3687.5,17.5 3762.5,17.5C 3762.5,292.833 3762.5,568.167 3762.5,843.5 Z"/></g>
<g><path style="opacity:0.999" fill="#f3771f" d="M 1710.5,843.5 C 1525.5,843.5 1340.5,843.5 1155.5,843.5C 1155.33,783.166 1155.5,722.832 1156,662.5C 1248.35,609.16 1340.68,555.826 1433,502.5C 1525.32,555.826 1617.65,609.16 1710,662.5C 1710.5,722.832 1710.67,783.166 1710.5,843.5 Z"/></g>
<g><path style="opacity:0.998" fill="#f3771f" d="M 554.5,843.5 C 369.5,843.5 184.5,843.5 -0.5,843.5C -0.5,783.167 -0.5,722.833 -0.5,662.5C 91.7436,608.793 184.244,555.459 277,502.5C 369.232,555.7 461.399,609.034 553.5,662.5C 554.5,722.83 554.833,783.163 554.5,843.5 Z"/></g>
</svg>
