<svg width="157" height="46" viewBox="0 0 157 46" fill="none" xmlns="http://www.w3.org/2000/svg">
<g clip-path="url(#clip0_634_407)">
<path d="M22.9885 4.92599V13.6735L15.4347 18.0472L7.88086 13.6735V4.92599L15.4347 0.552246L22.9885 4.92599Z" fill="#F37820"/>
<path d="M38.7463 4.92599V13.6735L31.1925 18.0472L23.6387 13.6735V4.92599L31.1925 0.552246L38.7463 4.92599Z" fill="#F37820"/>
<path d="M7.55382 14.2688L15.1076 18.6425V27.3853L12.6396 28.8151L7.54915 31.7638L0 27.3853V18.6425L7.55382 14.2688Z" fill="#F37820"/>
<path d="M46.6272 18.6425V27.3853L39.078 31.7638H39.0734L33.9829 28.8151L31.5195 27.3853V18.6425L39.0734 14.2688L46.6272 18.6425Z" fill="#F37820"/>
<path d="M22.9885 32.3264V41.0739L15.4347 45.4476L7.88086 41.0739V32.3264L15.4347 27.9526L22.9885 32.3264Z" fill="#F37820"/>
<path d="M38.7463 32.3264V41.0739L31.1925 45.4476L23.6387 41.0739V32.3264L31.1925 27.9526L38.7463 32.3264Z" fill="#F37820"/>
<path d="M64.4145 1.05396V34.8672C64.4145 36.4517 64.7371 37.558 65.3821 38.1862C66.0272 38.8144 66.892 39.1238 67.9718 39.1238C69.0515 39.1238 69.9163 38.8097 70.5614 38.1862C71.2064 37.558 71.529 36.4564 71.529 34.8672V1.05396H78.0217V34.4266C78.0217 37.9753 77.1569 40.6989 75.4321 42.5974C73.7026 44.496 71.155 45.4476 67.7848 45.4476C64.4145 45.4476 61.8623 44.496 60.1375 42.5974C58.4079 40.6989 57.5479 37.9753 57.5479 34.4266V1.05396H64.4145Z" fill="white"/>
<path d="M86.9588 13.1392V44.8851H80.7793V1.05396H89.3942L96.4479 27.2917V1.05396H102.567V44.8851H95.513L86.9588 13.1392Z" fill="white"/>
<path d="M105.475 1.05396H112.341V44.8851H105.475V1.05396Z" fill="white"/>
<path d="M114.178 1.05396H135.404V7.31689H128.224V44.8851H121.358V7.31689H114.178V1.05396Z" fill="white"/>
<path d="M136.709 11.5733C136.709 8.02464 137.55 5.30101 139.238 3.40244C140.925 1.50387 143.449 0.552246 146.824 0.552246C150.199 0.552246 152.723 1.50387 154.411 3.40244C156.098 5.30101 156.939 8.02464 156.939 11.5733V12.9515H150.447V11.1374C150.447 9.55287 150.143 8.43717 149.54 7.78556C148.937 7.13864 148.095 6.81518 147.011 6.81518C145.927 6.81518 145.085 7.13864 144.482 7.78556C143.879 8.43248 143.575 9.54818 143.575 11.1374C143.575 12.6421 143.907 13.9641 144.576 15.1126C145.239 16.2611 146.076 17.3487 147.072 18.3707C148.072 19.3926 149.143 20.4146 150.288 21.4365C151.433 22.4584 152.503 23.5741 153.504 24.7883C154.504 25.9978 155.336 27.376 156 28.923C156.664 30.4699 157 32.2841 157 34.3702C157 37.9189 156.135 40.6425 154.411 42.5411C152.681 44.4396 150.134 45.3913 146.763 45.3913C143.393 45.3913 140.841 44.4443 139.116 42.5411C137.386 40.6425 136.526 37.9189 136.526 34.3702V31.6794H143.019V34.8109C143.019 36.3953 143.342 37.5017 143.987 38.1298C144.632 38.758 145.497 39.0674 146.576 39.0674C147.656 39.0674 148.521 38.7533 149.166 38.1298C149.811 37.5017 150.134 36.4 150.134 34.8109C150.134 33.3061 149.802 31.9841 149.133 30.8356C148.465 29.6871 147.633 28.6042 146.637 27.5775C145.637 26.5556 144.566 25.5337 143.421 24.5117C142.276 23.4898 141.205 22.3741 140.205 21.1599C139.205 19.9505 138.373 18.5722 137.709 17.0253C137.041 15.483 136.709 13.6641 136.709 11.578V11.5733Z" fill="white"/>
</g>
<defs>
<clipPath id="clip0_634_407">
<rect width="157" height="44.8953" fill="white" transform="translate(0 0.552246)"/>
</clipPath>
</defs>
</svg>
