<svg width="155" height="42" viewBox="0 0 155 42" fill="none" xmlns="http://www.w3.org/2000/svg">
<g id="netflix-3 1" clip-path="url(#clip0_194_1781)">
<path id="Vector" d="M146.196 20.0049L154.404 41.7336C151.985 41.3882 149.567 40.9555 147.106 40.5657L142.482 28.5597L137.731 39.5746C135.399 39.1847 133.109 39.0549 130.777 38.7522L139.113 19.7465L131.552 0.266602H138.551L142.783 11.1503L147.32 0.266602H154.402L146.196 20.0049ZM126.026 0.266602H119.676V37.9325C121.75 38.0625 123.909 38.1481 126.026 38.4066V0.266602ZM114.19 37.4999C108.403 37.1115 102.614 36.7674 96.6968 36.636V0.266768H103.175V30.5029C106.891 30.5887 110.605 30.8901 114.19 31.0628V37.4999ZM89.7842 14.997V21.4755H80.9297V36.2046H74.5383V0.266602H92.68V6.74511H80.931V14.9972H89.7855L89.7842 14.997ZM63.6517 6.74511V36.5502C61.4913 36.5502 59.2895 36.5503 57.1719 36.636V6.74511H50.4764V0.266602H70.3886V6.74511H63.6517ZM43.4796 21.8198C40.6293 21.8198 37.2594 21.8198 34.8405 21.9511V31.5825C38.6416 31.3226 42.4428 31.0213 46.2866 30.8914V37.1115L28.362 38.5379V0.266602H46.2855V6.74511H34.8403V15.4711C37.3463 15.4711 41.1904 15.3413 43.4792 15.3413V21.8212L43.4796 21.8198ZM7.58276 18.1914V40.8255C5.25232 41.0853 3.17753 41.388 0.975586 41.7336V0.266602H7.15289L15.575 23.809V0.266602H22.0549V39.0549C19.7658 39.4447 17.4327 39.5746 14.9709 39.9188L7.58276 18.1914Z" fill="white" fill-opacity="0.3"/>
</g>
<defs>
<clipPath id="clip0_194_1781">
<rect width="153.428" height="41.5483" fill="white" transform="translate(0.975586 0.225952)"/>
</clipPath>
</defs>
</svg>
